<svg width="211" height="202" viewBox="0 0 211 202" fill="none" xmlns="http://www.w3.org/2000/svg">
<path d="M57.5449 25.7027L56.88 28.1127L56.88 28.1127L57.5449 25.7027ZM39.2661 18.8257C38.0653 19.5072 37.6443 21.0331 38.3257 22.2339L49.4311 41.8023C50.1126 43.0031 51.6385 43.4241 52.8393 42.7426C54.0401 42.0611 54.4611 40.5352 53.7797 39.3344L43.9082 21.9403L61.3023 12.0689C62.5031 11.3874 62.9241 9.86148 62.2426 8.66068C61.5611 7.45986 60.0352 7.03886 58.8344 7.72034L39.2661 18.8257ZM58.2098 23.2928L41.1649 18.59L39.8351 23.41L56.88 28.1127L58.2098 23.2928ZM156.397 200.211C178.95 124.152 134.685 44.3924 58.2098 23.2928L56.88 28.1127C130.657 48.468 173.361 125.413 151.603 198.789L156.397 200.211Z" fill="#049FB0"/>
</svg>
